HIERARCHY
ROOT Hips
{
	OFFSET 193.743393 91.357132 495.993408
	CHANNELS 6 Xposition Yposition Zposition Zrotation Yrotation Xrotation 
	JOINT LeftUpLeg
	{
		OFFSET 0.103458 1.857834 10.548510
		CHANNELS 3 Zrotation Yrotation Xrotation
		JOINT LeftLeg
		{
			OFFSET 43.500004 -0.000038 -0.000006
			CHANNELS 3 Zrotation Yrotation Xrotation
			JOINT LeftFoot
			{
				OFFSET 42.372192 0.000015 -0.000002
				CHANNELS 3 Zrotation Yrotation Xrotation
				JOINT LeftToe
				{
					OFFSET 17.300009 0.000003 -0.000006
					CHANNELS 3 Zrotation Yrotation Xrotation
					End Site
					{
						OFFSET 0.000000 0.000000 0.000000
					}
				}
			}
		}
	}
	JOINT RightUpLeg
	{
		OFFSET 0.103463 1.857841 -10.548498
		CHANNELS 3 Zrotation Yrotation Xrotation
		JOINT RightLeg
		{
			OFFSET 43.500042 -0.000046 0.000025
			CHANNELS 3 Zrotation Yrotation Xrotation
			JOINT RightFoot
			{
				OFFSET 42.372261 -0.000008 -0.000003
				CHANNELS 3 Zrotation Yrotation Xrotation
				JOINT RightToe
				{
					OFFSET 17.300001 -0.000003 0.000011
					CHANNELS 3 Zrotation Yrotation Xrotation
					End Site
					{
						OFFSET 0.000000 0.000000 0.000000
					}
				}
			}
		}
	}
	JOINT Spine
	{
		OFFSET 6.901968 -2.603734 0.000007
		CHANNELS 3 Zrotation Yrotation Xrotation
		JOINT Spine1
		{
			OFFSET 12.588101 0.000000 -0.000008
			CHANNELS 3 Zrotation Yrotation Xrotation
			JOINT Spine2
			{
				OFFSET 12.343197 0.000010 -0.000007
				CHANNELS 3 Zrotation Yrotation Xrotation
				JOINT Neck
				{
					OFFSET 25.832905 -0.000008 0.000010
					CHANNELS 3 Zrotation Yrotation Xrotation
					JOINT Head
					{
						OFFSET 11.766598 -0.000002 -0.000010
						CHANNELS 3 Zrotation Yrotation Xrotation
						End Site
						{
							OFFSET 0.000000 0.000000 0.000000
						}
					}
				}
				JOINT LeftShoulder
				{
					OFFSET 19.745899 -1.480373 6.000105
					CHANNELS 3 Zrotation Yrotation Xrotation
					JOINT LeftArm
					{
						OFFSET 11.284138 -0.000004 -0.000017
						CHANNELS 3 Zrotation Yrotation Xrotation
						JOINT LeftForeArm
						{
							OFFSET 33.000050 0.000013 0.000033
							CHANNELS 3 Zrotation Yrotation Xrotation
							JOINT LeftHand
							{
								OFFSET 25.200001 -0.000009 -0.000001
								CHANNELS 3 Zrotation Yrotation Xrotation
								End Site
								{
									OFFSET 0.000000 0.000000 0.000000
								}
							}
						}
					}
				}
				JOINT RightShoulder
				{
					OFFSET 19.746101 -1.480377 -6.000072
					CHANNELS 3 Zrotation Yrotation Xrotation
					JOINT RightArm
					{
						OFFSET 11.284133 -0.000004 -0.000014
						CHANNELS 3 Zrotation Yrotation Xrotation
						JOINT RightForeArm
						{
							OFFSET 33.000099 0.000009 0.000023
							CHANNELS 3 Zrotation Yrotation Xrotation
							JOINT RightHand
							{
								OFFSET 25.199770 0.000143 0.000407
								CHANNELS 3 Zrotation Yrotation Xrotation
								End Site
								{
									OFFSET 0.000000 0.000000 0.000000
								}
							}
						}
					}
				}
			}
		}
	}
}
MOTION
Frames: 12
Frame Time: 0.033333
193.743393 91.357132 495.993408 90.211704 -1.096430 86.826444 172.612363 -5.289698 168.545354 -20.141070 2.330441 -4.133890 82.185248 1.367576 -6.512993 21.454553 0.003086 -0.000000 172.140028 2.097600 -171.126073 -19.502126 -2.919102 7.756840 86.136144 -4.073695 6.719197 21.454560 -0.003107 -0.000017 5.332152 0.324868 -0.124148 0.650793 0.650315 -0.246679 0.332669 0.648941 -0.250606 7.431013 4.129950 -5.096360 -25.655181 -2.549540 -3.579321 -49.496899 -84.818054 -132.729331 1.759931 13.637830 -5.657090 -33.285175 -24.410138 1.906963 10.807174 -2.703913 -11.155149 -96.947056 87.065487 85.008323 -0.089664 -11.072111 25.548172 -42.855643 15.337362 -1.584130 1.597992 5.688168 -7.972264 
193.910706 91.335098 496.087585 90.216588 -1.062095 86.753313 172.611981 -5.199490 168.554438 -20.368346 2.302002 -4.196404 82.382948 1.435955 -6.448925 21.454550 0.003082 -0.000001 172.139373 2.249209 -170.989059 -19.656823 -2.938860 7.620250 86.191810 -3.965879 6.803803 21.454558 -0.003103 -0.000016 5.338770 0.294540 -0.103441 0.664166 0.589563 -0.205412 0.346056 0.588440 -0.208965 7.543238 3.940503 -5.043130 -25.677642 -2.566672 -3.550108 -49.889139 -84.789210 -132.340844 1.735794 13.586331 -5.584550 -33.234341 -24.432381 1.906959 10.791230 -2.620217 -11.181838 -97.139142 87.089666 84.813696 -0.067200 -11.095101 25.525875 -42.896002 15.321854 -1.584112 1.583848 5.536846 -8.040718 
194.193100 91.297401 496.248688 90.246566 -1.018334 86.622863 172.638263 -4.972699 168.652493 -20.656478 2.307464 -4.369103 82.666353 1.583805 -6.387318 21.454553 0.003087 0.000002 172.094334 2.508893 -170.813961 -19.968847 -2.998155 7.420363 86.290732 -3.803151 6.958735 21.454562 -0.003108 -0.000015 5.346466 0.244754 -0.068255 0.679808 0.489827 -0.135273 0.361698 0.489137 -0.138221 7.653633 3.519976 -4.906760 -25.689699 -2.586089 -3.467668 -50.673074 -84.738728 -131.563841 1.693439 13.519702 -5.544766 -33.184792 -24.461173 1.906963 10.777005 -2.496942 -11.174125 -96.710390 87.147893 85.238596 -0.014441 -11.109041 25.460797 -42.866779 15.308549 -1.584120 1.543903 5.360514 -8.207043 
194.479904 91.267197 496.408691 90.318310 -0.991221 86.496778 172.731782 -4.651901 168.697941 -20.747108 2.386949 -4.527838 82.848576 1.710991 -6.341583 21.454553 0.003085 0.000000 172.009490 2.791000 -170.731384 -20.313789 -3.078450 7.277468 86.379067 -3.672987 7.150182 21.454558 -0.003101 -0.000016 5.349920 0.193229 -0.041513 0.686883 0.386641 -0.082010 0.368774 0.386276 -0.084347 7.639306 2.955285 -4.733125 -25.581307 -2.585252 -3.374168 -51.742204 -84.678110 -130.502935 1.661152 13.526650 -5.692458 -33.218663 -24.483477 1.906959 10.791165 -2.492629 -11.131807 -95.573321 87.227021 86.371465 0.011872 -11.087379 25.373480 -42.726016 15.307079 -1.580052 1.531172 5.281039 -8.359925 
194.763702 91.245850 496.565887 90.428699 -0.972640 86.414727 172.883084 -4.289506 168.649924 -20.672802 2.476489 -4.611694 82.946015 1.788110 -6.262069 21.454545 0.003088 -0.000001 171.924467 3.109104 -170.638657 -20.644612 -3.162797 7.151984 86.459000 -3.552911 7.352206 21.454558 -0.003117 -0.000018 5.352398 0.132931 -0.030204 0.685506 0.265961 -0.059711 0.367382 0.265729 -0.061320 7.545041 2.355455 -4.552173 -25.383660 -2.606683 -3.267839 -52.545718 -84.629725 -129.706180 1.685121 13.584970 -5.916575 -33.304159 -24.525271 1.911635 10.807648 -2.591934 -11.108133 -94.726616 87.310807 87.212746 0.010247 -11.035550 25.321282 -42.530362 15.284543 -1.573082 1.576277 5.204091 -8.387727 
195.032303 91.225433 496.716400 90.540578 -0.966694 86.410151 173.001916 -3.964608 168.633737 -20.610487 2.507192 -4.656876 83.040388 1.847444 -6.144687 21.454551 0.003092 0.000000 171.852450 3.427705 -170.489964 -20.943653 -3.240704 7.039829 86.541256 -3.443363 7.549172 21.454558 -0.003112 -0.000017 5.353556 0.066465 -0.032749 0.683587 0.133037 -0.065146 0.365483 0.132789 -0.065970 7.369486 1.826982 -4.407664 -25.138463 -2.702729 -3.155460 -52.636709 -84.622103 -129.616008 1.784016 13.637709 -6.103474 -33.410618 -24.596353 1.918722 10.803933 -2.671424 -11.084857 -94.813517 87.360401 87.121549 0.010592 -10.956612 25.278691 -42.344929 15.254987 -1.565964 1.631020 5.116998 -8.361269 
195.282898 91.196442 496.853485 90.629213 -0.976969 86.481950 173.012476 -3.714293 168.736504 -20.708712 2.459740 -4.708926 83.199572 1.920806 -6.005614 21.454551 0.003091 -0.000001 171.775979 3.716095 -170.359357 -21.239797 -3.295406 6.985424 86.640950 -3.375487 7.745569 21.454558 -0.003107 -0.000017 5.354038 0.001303 -0.042774 0.688571 0.002758 -0.085526 0.370475 0.002387 -0.085555 7.042599 1.360104 -4.316102 -24.822794 -2.848044 -3.067736 -52.349558 -84.637573 -129.900977 1.887127 13.659669 -6.242494 -33.541181 -24.690026 1.927839 10.774073 -2.642801 -11.001696 -95.262178 87.346938 86.672628 0.034860 -10.871640 25.204122 -42.211952 15.246632 -1.561712 1.656990 5.043413 -8.389234 
195.522903 91.158943 496.976990 90.702187 -0.998853 86.606771 172.932535 -3.505098 168.879897 -20.938607 2.395695 -4.745407 83.410618 1.986977 -5.860504 21.454550 0.003084 -0.000000 171.684373 3.981900 -170.309510 -21.555841 -3.318509 7.009576 86.757152 -3.362443 7.950191 21.454557 -0.003109 -0.000018 5.354210 -0.061045 -0.055832 0.701704 -0.121826 -0.111998 0.383604 -0.122353 -0.111257 6.599490 0.893441 -4.274013 -24.465989 -2.952611 -3.052627 -52.110262 -84.654341 -130.138094 1.928480 13.662222 -6.354745 -33.704340 -24.806260 1.939238 10.714745 -2.513620 -10.863665 -95.356449 87.291300 86.583241 0.086897 -10.821333 25.137475 -42.141690 15.247340 -1.559100 1.674425 4.955827 -8.458554 
195.760101 91.119568 497.094208 90.778931 -1.031336 86.738451 172.829386 -3.285001 168.945521 -21.177726 2.382113 -4.736185 83.620824 2.018653 -5.722357 21.454551 0.003096 -0.000001 171.577139 4.241706 -170.341831 -21.880745 -3.325488 7.085672 86.875594 -3.384511 8.165058 21.454558 -0.003104 -0.000016 5.354480 -0.125048 -0.067024 0.709172 -0.249792 -0.134731 0.391086 -0.250447 -0.133223 6.153655 0.405165 -4.270468 -24.116995 -2.945043 -3.134744 -51.973693 -84.678848 -130.272048 1.912150 13.653440 -6.461070 -33.900073 -24.927417 1.951720 10.622482 -2.338404 -10.693312 -95.228731 87.252771 86.714880 0.165336 -10.820941 25.148990 -42.104872 15.231293 -1.557087 1.708462 4.834653 -8.506865 
195.995697 91.082680 497.213989 90.859063 -1.071381 86.825460 172.750633 -3.053106 168.945672 -21.367093 2.400055 -4.717137 83.810075 2.038953 -5.596844 21.454550 0.003093 0.000000 171.460943 4.489102 -170.417004 -22.192815 -3.344260 7.163378 86.980362 -3.406269 8.384658 21.454557 -0.003089 -0.000015 5.355213 -0.191111 -0.069711 0.705151 -0.381887 -0.140480 0.387040 -0.382608 -0.138161 5.717973 -0.091078 -4.296519 -23.712322 -2.834577 -3.298739 -51.851948 -84.725225 -130.388871 1.873194 13.643259 -6.550398 -34.108868 -25.041077 1.964084 10.530050 -2.195551 -10.539107 -95.232624 87.260045 86.710215 0.243572 -10.832221 25.217736 -42.046341 15.205487 -1.554423 1.761149 4.714353 -8.499672 
196.232803 91.045563 497.334595 90.940048 -1.106660 86.823029 172.706005 -2.822004 168.961326 -21.531246 2.396052 -4.755699 83.992407 2.095555 -5.486073 21.454553 0.003100 -0.000000 171.323206 4.736407 -170.498010 -22.520811 -3.371883 7.191808 87.077501 -3.396036 8.590351 21.454558 -0.003115 -0.000019 5.356771 -0.257635 -0.059875 0.700978 -0.514974 -0.121138 0.382852 -0.515573 -0.118025 5.222428 -0.584556 -4.329935 -23.154787 -2.693023 -3.488645 -52.021583 -84.763816 -130.215931 1.793434 13.648790 -6.636676 -34.303976 -25.135637 1.974907 10.475836 -2.155886 -10.398201 -95.268052 87.305793 86.670565 0.277505 -10.804711 25.229491 -41.927475 15.188017 -1.549997 1.826756 4.614849 -8.409869 
196.473801 91.002052 497.454010 91.031757 -1.116586 86.744243 172.691402 -2.578907 169.040215 -21.710887 2.359773 -4.873684 84.184192 2.203896 -5.392006 21.454553 0.003092 0.000000 171.155825 5.023804 -170.516274 -22.924756 -3.392735 7.131491 87.194857 -3.331257 8.766396 21.454557 -0.003104 -0.000016 5.360245 -0.326232 -0.041634 0.707913 -0.652262 -0.085059 0.389786 -0.652636 -0.081107 4.667964 -1.058467 -4.375000 -22.465018 -2.569534 -3.684255 -52.414038 -84.782858 -129.822403 1.673563 13.694391 -6.745333 -34.472993 -25.222159 1.984611 10.462382 -2.182656 -10.269920 -95.131776 87.375796 86.801309 0.259823 -10.728320 25.148058 -41.766054 15.170178 -1.544365 1.864610 4.504519 -8.374246 
